<svg xmlns="http://www.w3.org/2000/svg" xmlns:xlink="http://www.w3.org/1999/xlink" contentStyleType="text/css" data-diagram-type="ACTIVITY" height="448px" preserveAspectRatio="none" style="width:373px;height:448px;background:#FFFFFF;" version="1.1" viewBox="0 0 373 448" width="373px" zoomAndPan="magnify"><title>Event erstellen</title><defs><filter height="1" id="b1f6tbjvso2rl00" width="1" x="0" y="0"><feFlood flood-color="#FFFFFF" result="flood"/><feComposite in="SourceGraphic" in2="flood" operator="over"/></filter><filter height="1" id="b1f6tbjvso2rl01" width="1" x="0" y="0"><feFlood flood-color="#ADD8E6" result="flood"/><feComposite in="SourceGraphic" in2="flood" operator="over"/></filter><filter height="1" id="b1f6tbjvso2rl02" width="1" x="0" y="0"><feFlood flood-color="#90EE90" result="flood"/><feComposite in="SourceGraphic" in2="flood" operator="over"/></filter></defs><g><g class="title" data-source-line="1"><text fill="#000000" font-family="Verdana" font-size="22" font-weight="bold" lengthAdjust="spacing" textLength="185.7002" x="92.3247" y="37.1182">Event erstellen</text></g><ellipse cx="186.6748" cy="62.7373" fill="#FFFFFF" rx="10" ry="10" style="stroke:#000000;stroke-width:1;"/><rect fill="#FFFFFF" height="34.584" rx="12.5" ry="12.5" style="stroke:#000000;stroke-width:1;" width="208.1035" x="82.623" y="92.7373"/><text fill="#000000" filter="url(#b1f6tbjvso2rl00)" font-family="Verdana" font-size="12" lengthAdjust="spacing" textLength="188.1035" x="92.623" y="114.8018">"/admin/tours/create" aufrufen</text><rect fill="#FFFFFF" height="34.584" rx="12.5" ry="12.5" style="stroke:#000000;stroke-width:1;" width="289.373" x="41.9883" y="147.3213"/><text fill="#000000" filter="url(#b1f6tbjvso2rl01)" font-family="Verdana" font-size="12" lengthAdjust="spacing" textLength="269.373" x="51.9883" y="169.3857">Titel, Zeitraum, Bild und K&#252;nstler ausw&#228;hlen</text><rect fill="#FFFFFF" height="34.584" rx="12.5" ry="12.5" style="stroke:#000000;stroke-width:1;" width="261.2598" x="56.0449" y="201.9053"/><text fill="#000000" filter="url(#b1f6tbjvso2rl02)" font-family="Verdana" font-size="12" lengthAdjust="spacing" textLength="241.2598" x="66.0449" y="223.9697">Formular absenden -&gt; Tour gespeichert</text><rect fill="#FFFFFF" height="34.584" rx="12.5" ry="12.5" style="stroke:#000000;stroke-width:1;" width="240.8867" x="66.2314" y="256.4893"/><text fill="#000000" filter="url(#b1f6tbjvso2rl00)" font-family="Verdana" font-size="12" lengthAdjust="spacing" textLength="220.8867" x="76.2314" y="278.5537">"/admin/tours/events/create" &#246;ffnen</text><rect fill="#FFFFFF" height="34.584" rx="12.5" ry="12.5" style="stroke:#000000;stroke-width:1;" width="361.3496" x="6" y="311.0732"/><text fill="#000000" filter="url(#b1f6tbjvso2rl01)" font-family="Verdana" font-size="12" lengthAdjust="spacing" textLength="341.3496" x="16" y="333.1377">Tour und Venue w&#228;hlen, Zeiten und Kategorien erfassen</text><rect fill="#FFFFFF" height="34.584" rx="12.5" ry="12.5" style="stroke:#000000;stroke-width:1;" width="116.2578" x="128.5459" y="365.6572"/><text fill="#000000" filter="url(#b1f6tbjvso2rl02)" font-family="Verdana" font-size="12" lengthAdjust="spacing" textLength="96.2578" x="138.5459" y="387.7217">Event speichern</text><ellipse cx="186.6748" cy="431.2412" fill="none" rx="11" ry="11" style="stroke:#000000;stroke-width:1;"/><ellipse cx="186.6748" cy="431.2412" fill="#FFFFFF" rx="6" ry="6" style="stroke:#000000;stroke-width:1;"/><line style="stroke:#000000;stroke-width:1;" x1="186.6748" x2="186.6748" y1="72.7373" y2="92.7373"/><polygon fill="#000000" points="182.6748,82.7373,186.6748,92.7373,190.6748,82.7373,186.6748,86.7373" style="stroke:#000000;stroke-width:1;"/><line style="stroke:#000000;stroke-width:1;" x1="186.6748" x2="186.6748" y1="127.3213" y2="147.3213"/><polygon fill="#000000" points="182.6748,137.3213,186.6748,147.3213,190.6748,137.3213,186.6748,141.3213" style="stroke:#000000;stroke-width:1;"/><line style="stroke:#000000;stroke-width:1;" x1="186.6748" x2="186.6748" y1="181.9053" y2="201.9053"/><polygon fill="#000000" points="182.6748,191.9053,186.6748,201.9053,190.6748,191.9053,186.6748,195.9053" style="stroke:#000000;stroke-width:1;"/><line style="stroke:#000000;stroke-width:1;" x1="186.6748" x2="186.6748" y1="236.4893" y2="256.4893"/><polygon fill="#000000" points="182.6748,246.4893,186.6748,256.4893,190.6748,246.4893,186.6748,250.4893" style="stroke:#000000;stroke-width:1;"/><line style="stroke:#000000;stroke-width:1;" x1="186.6748" x2="186.6748" y1="291.0732" y2="311.0732"/><polygon fill="#000000" points="182.6748,301.0732,186.6748,311.0732,190.6748,301.0732,186.6748,305.0732" style="stroke:#000000;stroke-width:1;"/><line style="stroke:#000000;stroke-width:1;" x1="186.6748" x2="186.6748" y1="345.6572" y2="365.6572"/><polygon fill="#000000" points="182.6748,355.6572,186.6748,365.6572,190.6748,355.6572,186.6748,359.6572" style="stroke:#000000;stroke-width:1;"/><line style="stroke:#000000;stroke-width:1;" x1="186.6748" x2="186.6748" y1="400.2412" y2="420.2412"/><polygon fill="#000000" points="182.6748,410.2412,186.6748,420.2412,190.6748,410.2412,186.6748,414.2412" style="stroke:#000000;stroke-width:1;"/><!--SRC=[VT2nJiCm40RWtKznT2xAtg8CbO2XZ1MLsDpaJspLEKVdSn7lmpCmiUN5S2WL4geOBVttt-TJhm5qVm8hGP8Y1B0nD-emWCPWFPjqz3nQiGC5pz2t4HH5NJH9hQWngxk3ROwhlVEAUb7PTl1SQSoIgaPW5GkokPFSWTUNy9FldMv2HhqhKs59B_0gDWzBslZGKkQMjjCdfyAJCfvUftSN_XOy2i3rGvGX1rjYXmHkmNHRqwxifnvfX6ySHDV_CJ7__rSxVNGTNyVEhRFj6Pn1FwYplkpzLfUAFeelJqXdKxgEFf_ymYkHSiquVW40]--></g></svg>