<svg xmlns="http://www.w3.org/2000/svg" xmlns:xlink="http://www.w3.org/1999/xlink" contentStyleType="text/css" data-diagram-type="ACTIVITY" height="512px" preserveAspectRatio="none" style="width:475px;height:512px;background:#FFFFFF;" version="1.1" viewBox="0 0 475 512" width="475px" zoomAndPan="magnify"><title>Konto l&#246;schen</title><defs><filter height="1" id="bq5zi1dnw45bg0" width="1" x="0" y="0"><feFlood flood-color="#FFFFFF" result="flood"/><feComposite in="SourceGraphic" in2="flood" operator="over"/></filter><filter height="1" id="bq5zi1dnw45bg1" width="1" x="0" y="0"><feFlood flood-color="#ADD8E6" result="flood"/><feComposite in="SourceGraphic" in2="flood" operator="over"/></filter><filter height="1" id="bq5zi1dnw45bg2" width="1" x="0" y="0"><feFlood flood-color="#90EE90" result="flood"/><feComposite in="SourceGraphic" in2="flood" operator="over"/></filter><filter height="1" id="bq5zi1dnw45bg3" width="1" x="0" y="0"><feFlood flood-color="#F08080" result="flood"/><feComposite in="SourceGraphic" in2="flood" operator="over"/></filter></defs><g><g class="title" data-source-line="1"><text fill="#000000" font-family="Verdana" font-size="22" font-weight="bold" lengthAdjust="spacing" textLength="174.958" x="148.938" y="37.1182">Konto l&#246;schen</text></g><ellipse cx="210.6782" cy="62.7373" fill="#FFFFFF" rx="10" ry="10" style="stroke:#000000;stroke-width:1;"/><rect fill="#FFFFFF" height="34.584" rx="12.5" ry="12.5" style="stroke:#000000;stroke-width:1;" width="116.5742" x="152.3911" y="92.7373"/><text fill="#000000" filter="url(#bq5zi1dnw45bg0)" font-family="Verdana" font-size="12" lengthAdjust="spacing" textLength="96.5742" x="162.3911" y="114.8018">"/profile" &#246;ffnen</text><rect fill="#FFFFFF" height="34.584" rx="12.5" ry="12.5" style="stroke:#000000;stroke-width:1;" width="175.4316" x="122.9624" y="147.3213"/><text fill="#000000" filter="url(#bq5zi1dnw45bg1)" font-family="Verdana" font-size="12" lengthAdjust="spacing" textLength="155.4316" x="132.9624" y="169.3857">"Account l&#246;schen" w&#228;hlen</text><rect fill="#FFFFFF" height="34.584" rx="12.5" ry="12.5" style="stroke:#000000;stroke-width:1;" width="227.7266" x="96.8149" y="201.9053"/><text fill="#000000" filter="url(#bq5zi1dnw45bg2)" font-family="Verdana" font-size="12" lengthAdjust="spacing" textLength="207.7266" x="106.8149" y="223.9697">Dialog verlangt Eingabe "L&#246;schen"</text><polygon fill="#FFFFFF" points="154.0803,256.4893,267.2761,256.4893,279.2761,268.4893,267.2761,280.4893,154.0803,280.4893,142.0803,268.4893,154.0803,256.4893" style="stroke:#000000;stroke-width:1;"/><text fill="#000000" font-family="Verdana" font-size="11" lengthAdjust="spacing" textLength="113.1958" x="154.0803" y="272.864">noch offene Tickets?</text><text fill="#000000" font-family="Verdana" font-size="11" lengthAdjust="spacing" textLength="10.3931" x="131.6873" y="266.1797">ja</text><text fill="#000000" font-family="Verdana" font-size="11" lengthAdjust="spacing" textLength="23.4932" x="279.2761" y="266.1797">nein</text><rect fill="#FFFFFF" height="34.584" rx="12.5" ry="12.5" style="stroke:#000000;stroke-width:1;" width="167.4395" x="6" y="290.4893"/><text fill="#000000" filter="url(#bq5zi1dnw45bg3)" font-family="Verdana" font-size="12" lengthAdjust="spacing" textLength="147.4395" x="16" y="312.5537">Fehlermeldung anzeigen</text><rect fill="#FFFFFF" height="34.584" rx="12.5" ry="12.5" style="stroke:#000000;stroke-width:1;" width="276.3945" x="193.4395" y="290.4893"/><text fill="#000000" filter="url(#bq5zi1dnw45bg2)" font-family="Verdana" font-size="12" lengthAdjust="spacing" textLength="256.3945" x="203.4395" y="312.5537">Eingabe best&#228;tigen -&gt; Konto wird entfernt</text><rect fill="#FFFFFF" height="34.584" rx="12.5" ry="12.5" style="stroke:#000000;stroke-width:1;" width="205.625" x="228.8242" y="345.0732"/><text fill="#000000" filter="url(#bq5zi1dnw45bg3)" font-family="Verdana" font-size="12" lengthAdjust="spacing" textLength="185.625" x="238.8242" y="367.1377">Lokale Sessiondaten entfernen</text><rect fill="#FFFFFF" height="34.584" rx="12.5" ry="12.5" style="stroke:#000000;stroke-width:1;" width="186.4473" x="238.4131" y="399.6572"/><text fill="#000000" filter="url(#bq5zi1dnw45bg0)" font-family="Verdana" font-size="12" lengthAdjust="spacing" textLength="166.4473" x="248.4131" y="421.7217">Weiterleitung zur Startseite</text><polygon fill="#FFFFFF" points="210.6782,440.2412,222.6782,452.2412,210.6782,464.2412,198.6782,452.2412,210.6782,440.2412" style="stroke:#000000;stroke-width:1;"/><ellipse cx="210.6782" cy="495.2412" fill="none" rx="11" ry="11" style="stroke:#000000;stroke-width:1;"/><ellipse cx="210.6782" cy="495.2412" fill="#FFFFFF" rx="6" ry="6" style="stroke:#000000;stroke-width:1;"/><line style="stroke:#000000;stroke-width:1;" x1="210.6782" x2="210.6782" y1="72.7373" y2="92.7373"/><polygon fill="#000000" points="206.6782,82.7373,210.6782,92.7373,214.6782,82.7373,210.6782,86.7373" style="stroke:#000000;stroke-width:1;"/><line style="stroke:#000000;stroke-width:1;" x1="210.6782" x2="210.6782" y1="127.3213" y2="147.3213"/><polygon fill="#000000" points="206.6782,137.3213,210.6782,147.3213,214.6782,137.3213,210.6782,141.3213" style="stroke:#000000;stroke-width:1;"/><line style="stroke:#000000;stroke-width:1;" x1="210.6782" x2="210.6782" y1="181.9053" y2="201.9053"/><polygon fill="#000000" points="206.6782,191.9053,210.6782,201.9053,214.6782,191.9053,210.6782,195.9053" style="stroke:#000000;stroke-width:1;"/><line style="stroke:#000000;stroke-width:1;" x1="331.6367" x2="331.6367" y1="325.0732" y2="345.0732"/><polygon fill="#000000" points="327.6367,335.0732,331.6367,345.0732,335.6367,335.0732,331.6367,339.0732" style="stroke:#000000;stroke-width:1;"/><line style="stroke:#000000;stroke-width:1;" x1="331.6367" x2="331.6367" y1="379.6572" y2="399.6572"/><polygon fill="#000000" points="327.6367,389.6572,331.6367,399.6572,335.6367,389.6572,331.6367,393.6572" style="stroke:#000000;stroke-width:1;"/><line style="stroke:#000000;stroke-width:1;" x1="142.0803" x2="89.7197" y1="268.4893" y2="268.4893"/><line style="stroke:#000000;stroke-width:1;" x1="89.7197" x2="89.7197" y1="268.4893" y2="290.4893"/><polygon fill="#000000" points="85.7197,280.4893,89.7197,290.4893,93.7197,280.4893,89.7197,284.4893" style="stroke:#000000;stroke-width:1;"/><line style="stroke:#000000;stroke-width:1;" x1="279.2761" x2="331.6367" y1="268.4893" y2="268.4893"/><line style="stroke:#000000;stroke-width:1;" x1="331.6367" x2="331.6367" y1="268.4893" y2="290.4893"/><polygon fill="#000000" points="327.6367,280.4893,331.6367,290.4893,335.6367,280.4893,331.6367,284.4893" style="stroke:#000000;stroke-width:1;"/><line style="stroke:#000000;stroke-width:1;" x1="89.7197" x2="89.7197" y1="325.0732" y2="452.2412"/><line style="stroke:#000000;stroke-width:1;" x1="89.7197" x2="198.6782" y1="452.2412" y2="452.2412"/><polygon fill="#000000" points="188.6782,448.2412,198.6782,452.2412,188.6782,456.2412,192.6782,452.2412" style="stroke:#000000;stroke-width:1;"/><line style="stroke:#000000;stroke-width:1;" x1="331.6367" x2="331.6367" y1="434.2412" y2="452.2412"/><line style="stroke:#000000;stroke-width:1;" x1="331.6367" x2="222.6782" y1="452.2412" y2="452.2412"/><polygon fill="#000000" points="232.6782,448.2412,222.6782,452.2412,232.6782,456.2412,228.6782,452.2412" style="stroke:#000000;stroke-width:1;"/><line style="stroke:#000000;stroke-width:1;" x1="210.6782" x2="210.6782" y1="236.4893" y2="256.4893"/><polygon fill="#000000" points="206.6782,246.4893,210.6782,256.4893,214.6782,246.4893,210.6782,250.4893" style="stroke:#000000;stroke-width:1;"/><line style="stroke:#000000;stroke-width:1;" x1="210.6782" x2="210.6782" y1="464.2412" y2="484.2412"/><polygon fill="#000000" points="206.6782,474.2412,210.6782,484.2412,214.6782,474.2412,210.6782,478.2412" style="stroke:#000000;stroke-width:1;"/><!--SRC=[RP4zRiCm38LtdOBrb0n5zwHmqV-XsL8Wis9J5ck6CYIwGNEUd24NyCKg8pyeWYuSXFVnFJufAIDy1D40F1nIvL6CkL6F6uIEBOb9BKbdezq0aw3-T0WXgWycgOrgpEn-RQjsjlAaM1PtNGoE60iO3iu9olmiM53ZzOdxB7gigj2BNXmBs0vxpzVYzuWevGjP3WryOsGhZS8hIMFN2CNYJCyDEPX8g3m4vr0GFgbgKTF35F8b0fClEpK0VtS_XsYvVCFi6ZV8TIyDMDaXDMCAv8Hv8v9SSyTCvmnhJ3hiTOJWjZprkALO0uewZABpVtqNeRMvzoMcH45ggva_4QFz1JcMki8y8-Svfjpr4PPZzMbypbcb9cVoRuJk5m00]--></g></svg>