<?xml version="1.0" encoding="utf-8"?>
<!-- Generator: Adobe Illustrator 24.0.3, SVG Export Plug-In . SVG Version: 6.00 Build 0)  -->
<svg version="1.1" id="Raster" xmlns="http://www.w3.org/2000/svg" xmlns:xlink="http://www.w3.org/1999/xlink" x="0px" y="0px"
	 viewBox="0 0 364.1 156.5" style="enable-background:new 0 0 364.1 156.5;" xml:space="preserve">
<style type="text/css">
	.st0{fill:#FFFFFF;}
	.st1{fill:#FECA27;}
</style>
<g>
	<g>
		<path class="st0" d="M3,64c2-4.3,4.7-7.7,8.4-10.1c3.6-2.5,7.8-3.7,12.6-3.7c7.2,0,12.9,2.6,16.9,7.9C45,63.4,47,70.3,47,78.8v3.8
			H13.4c0.3,3.8,1.6,7,3.8,9.4s5.3,3.7,9.2,3.7c2.1,0,4.2-0.5,6.3-1.4s3.9-2.2,5.4-3.8l6.1,8c-2.4,2.6-5.2,4.6-8.6,5.9
			c-3.4,1.4-6.9,2-10.6,2c-4.9,0-9.3-1.2-13.1-3.5S5.2,97.3,3.1,93S0,83.8,0,78.3C0,73,1,68.3,3,64z M16.1,64.6
			c-1.7,2.5-2.6,5.4-2.7,8.8h20.7c-0.1-3.3-1-6.2-2.7-8.8c-1.6-2.5-4.2-3.8-7.8-3.8C20.3,60.9,17.8,62.1,16.1,64.6z"/>
		<path class="st0" d="M44.8,51.5H59l10.7,37.6l10.9-37.6h14.2L77,105H62.6L44.8,51.5z"/>
		<path class="st0" d="M95.7,64c2-4.3,4.7-7.7,8.4-10.1c3.6-2.5,7.8-3.7,12.6-3.7c7.2,0,12.9,2.6,16.9,7.9
			c4.1,5.3,6.1,12.2,6.1,20.7v3.8h-33.6c0.3,3.8,1.6,7,3.8,9.4s5.3,3.7,9.2,3.7c2.1,0,4.2-0.5,6.3-1.4s3.9-2.2,5.4-3.8l6.1,8
			c-2.4,2.6-5.2,4.6-8.6,5.9c-3.4,1.4-6.9,2-10.6,2c-4.9,0-9.3-1.2-13.1-3.5s-6.7-5.6-8.8-9.9c-2.1-4.3-3.1-9.2-3.1-14.7
			C92.7,73,93.7,68.3,95.7,64z M108.9,64.6c-1.7,2.5-2.6,5.4-2.7,8.8h20.7c-0.1-3.3-1-6.2-2.7-8.8c-1.6-2.5-4.2-3.8-7.8-3.8
			C113,60.9,110.5,62.1,108.9,64.6z"/>
		<path class="st0" d="M173.7,69.7c0-5.2-2.3-7.9-7-7.9c-2.1,0-3.9,0.6-5.6,1.9c-1.7,1.3-3,2.9-4.2,4.7v36.4h-13.3V51.5h13.3v7
			c1.6-2.3,3.7-4.2,6.6-5.9c2.8-1.6,5.9-2.4,9.1-2.4c4.8,0,8.4,1.3,10.7,3.9c2.4,2.6,3.5,6.2,3.5,10.7V105h-13.3V69.7H173.7z"/>
		<path class="st0" d="M199.9,102.8c-2.2-2.4-3.3-5.9-3.3-10.6v-29h-7V51.5h7V36.8h13.3v14.6h8.9V63h-8.9v25.9c0,1.8,0.3,3.1,1,4.1
			s1.6,1.4,2.9,1.4c0.8,0,1.6-0.1,2.3-0.4s1.3-0.7,1.7-1.1l2.8,10.2c-2.3,2.1-5.7,3.1-10.3,3.1C205.5,106.3,202.1,105.1,199.9,102.8
			z"/>
		<path class="st0" d="M224.3,41.3c-1.6-1.6-2.4-3.4-2.4-5.6s0.8-4.1,2.4-5.7c1.6-1.6,3.5-2.4,5.6-2.4c2.2,0,4.1,0.8,5.6,2.4
			c1.6,1.6,2.3,3.5,2.3,5.7s-0.8,4.1-2.3,5.6c-1.6,1.6-3.4,2.3-5.6,2.3C227.7,43.6,225.9,42.8,224.3,41.3z M223.2,51.5h13.3V105
			h-13.3V51.5z"/>
		<path class="st0" d="M300.3,69c0-4.7-2-7.1-6.1-7.1c-1.9,0-3.7,0.7-5.3,2c-1.6,1.3-2.9,2.9-3.9,4.7V105h-13.3V69
			c0-4.7-2-7.1-6.1-7.1c-1.8,0-3.6,0.7-5.3,2c-1.7,1.3-3,2.9-3.9,4.7V105h-13.3V51.5h13.4v7c1.2-2.1,3.2-4,6-5.7s5.9-2.6,9-2.6
			c3.4,0,6.2,0.8,8.5,2.4s3.7,3.9,4.5,6.9c1.3-2.5,3.5-4.7,6.4-6.5c3-1.8,6-2.8,9.2-2.8c4.3,0,7.6,1.2,10,3.5s3.5,5.9,3.5,10.7v40.7
			h-13.3L300.3,69L300.3,69z"/>
	</g>
	<g id="_x33_5_x2C_11_7_">
		<path class="st1" d="M327.2,36.9L327.2,36.9c6.2,6.2,6.4,15.9,6.4,22.6h1.5c0-6.7,0.2-16.4,6.4-22.6l0,0
			c6.2-6.2,15.9-6.4,22.6-6.4V29c-6.7,0-16.4-0.2-22.6-6.4l0,0c-6.2-6.2-6.4-15.9-6.4-22.6h-1.6c0,6.7-0.2,16.4-6.4,22.6l0,0
			c-6.2,6.2-15.9,6.4-22.6,6.4v1.5C311.3,30.5,321,30.7,327.2,36.9z"/>
	</g>
</g>
</svg>
